<svg width="360" height="73" viewBox="0 0 360 73" fill="none" xmlns="http://www.w3.org/2000/svg">
<path d="M248.894 26.8184H246.23V25.8877H252.666V26.8184H249.994V34.1093H248.894V26.8184Z" fill="#000A28"/>
<path d="M253.439 31.2986C253.448 32.5214 254.066 33.3883 255.085 33.3883C256.039 33.3883 256.348 32.8955 256.539 32.4575H257.584C257.348 33.224 256.703 34.246 255.057 34.246C253.166 34.246 252.394 32.713 252.394 31.1709C252.394 29.3915 253.294 27.968 255.121 27.968C257.057 27.968 257.694 29.5193 257.694 30.7968C257.694 30.9793 257.694 31.1344 257.675 31.2895H253.439V31.2986ZM256.639 30.5686C256.63 29.5831 256.13 28.7893 255.103 28.7893C254.048 28.7893 253.575 29.5193 253.475 30.5686H256.639Z" fill="#000A28"/>
<path d="M264.193 32.2752C263.939 33.3063 263.239 34.2553 261.712 34.2553C260.057 34.2553 259.03 33.069 259.03 31.1528C259.03 29.4555 259.993 27.9773 261.784 27.9773C263.521 27.9773 264.121 29.2092 264.193 29.9848H263.166C263.021 29.3734 262.63 28.8442 261.766 28.8442C260.702 28.8442 260.102 29.7567 260.102 31.1163C260.102 32.485 260.684 33.3975 261.73 33.3975C262.484 33.3975 262.921 32.996 263.166 32.2843H264.193V32.2752Z" fill="#000A28"/>
<path d="M265.802 29.6196C265.802 29.0995 265.802 28.5703 265.793 28.1049H266.802C266.83 28.2783 266.848 28.9079 266.839 29.0904C267.075 28.5794 267.566 27.968 268.73 27.968C269.857 27.968 270.739 28.6524 270.739 30.2493V34.1H269.702V30.3861C269.702 29.4828 269.348 28.8714 268.43 28.8714C267.293 28.8714 266.839 29.7291 266.839 30.9336V34.1091H265.802V29.6196Z" fill="#000A28"/>
<path d="M278.038 31.0979C278.038 32.8225 277.047 34.246 275.211 34.246C273.484 34.246 272.448 32.9138 272.448 31.1161C272.448 29.3459 273.466 27.968 275.284 27.968C276.938 27.968 278.038 29.2181 278.038 31.0979ZM273.511 31.107C273.511 32.421 274.166 33.3791 275.248 33.3791C276.348 33.3791 276.966 32.4666 276.966 31.107C276.966 29.7565 276.348 28.8258 275.22 28.8258C274.102 28.8349 273.511 29.7383 273.511 31.107Z" fill="#000A28"/>
<path d="M279.747 34.1093V25.4314H280.784V34.1093H279.747Z" fill="#000A28"/>
<path d="M288.075 31.0979C288.075 32.8225 287.084 34.246 285.247 34.246C283.52 34.246 282.484 32.9138 282.484 31.1161C282.484 29.3459 283.502 27.968 285.32 27.968C286.984 27.968 288.075 29.2181 288.075 31.0979ZM283.547 31.107C283.547 32.421 284.202 33.3791 285.284 33.3791C286.384 33.3791 287.002 32.4666 287.002 31.107C287.002 29.7565 286.384 28.8258 285.256 28.8258C284.138 28.8349 283.547 29.7383 283.547 31.107Z" fill="#000A28"/>
<path d="M294.811 33.5617C294.811 35.478 294.011 36.573 292.047 36.573C290.22 36.573 289.665 35.551 289.556 34.7389H290.611C290.784 35.3959 291.32 35.7426 292.093 35.7426C293.456 35.7426 293.793 34.8757 293.793 33.4979V33.0142C293.474 33.6895 292.92 34.0636 291.911 34.0636C290.429 34.0636 289.42 32.8591 289.42 31.1071C289.42 29.1544 290.565 27.959 292.02 27.959C293.165 27.959 293.656 28.4974 293.793 28.8989C293.802 28.6251 293.829 28.2327 293.838 28.105H294.82C294.82 28.4517 294.802 29.2639 294.802 29.8387V33.5617H294.811ZM290.511 31.0706C290.511 32.339 291.174 33.1967 292.156 33.1967C293.456 33.1967 293.829 32.3299 293.829 30.9976C293.829 29.6471 293.474 28.8532 292.183 28.8532C291.074 28.8441 290.511 29.7749 290.511 31.0706Z" fill="#000A28"/>
<path d="M296.938 25.4314H297.974V26.7271H296.938V25.4314ZM296.938 28.1141H297.974V34.1093H296.938V28.1141Z" fill="#000A28"/>
<path d="M304.51 32.7952C304.51 33.3427 304.556 33.9267 304.592 34.1001H303.601C303.556 33.9632 303.52 33.6804 303.501 33.3154C303.292 33.7169 302.81 34.2461 301.647 34.2461C300.229 34.2461 299.62 33.3245 299.62 32.412C299.62 31.0706 300.674 30.4592 302.465 30.4592C302.883 30.4592 303.265 30.4592 303.492 30.4592V29.9482C303.492 29.419 303.32 28.7711 302.201 28.7711C301.192 28.7711 301.029 29.2639 300.92 29.7384H299.911C299.992 28.908 300.501 27.959 302.229 27.959C303.701 27.959 304.51 28.5612 304.51 29.9209V32.7952ZM303.501 31.1801C303.31 31.1801 302.856 31.1801 302.529 31.1801C301.329 31.1801 300.683 31.5086 300.683 32.3572C300.683 32.9777 301.11 33.434 301.856 33.434C303.301 33.434 303.501 32.4576 303.501 31.3717V31.1801Z" fill="#000A28"/>
<path d="M313.992 33.2423C313.683 33.8719 313.129 34.246 312.092 34.246C310.729 34.246 309.592 33.1693 309.592 31.1709C309.592 29.1543 310.792 27.968 312.238 27.968C313.356 27.968 313.847 28.479 313.992 28.8714C313.992 28.6524 314.01 28.3513 314.029 28.114H315.01C315.001 28.7345 315.001 29.2181 315.001 29.7656V36.4634H313.992V33.2423ZM310.665 31.1344C310.665 32.3389 311.192 33.37 312.338 33.37C313.638 33.37 314.01 32.4849 314.01 31.0796C314.01 29.6744 313.674 28.8531 312.374 28.8531C311.256 28.8531 310.665 29.8021 310.665 31.1344Z" fill="#000A28"/>
<path d="M321.955 32.3574C321.955 32.9414 321.965 33.7535 321.965 34.1003H320.955C320.928 33.9451 320.919 33.5801 320.919 33.206C320.628 33.8721 320.046 34.2463 319.101 34.2463C318.092 34.2463 317.11 33.7444 317.11 32.0563V28.1143H318.137V31.8373C318.137 32.622 318.383 33.352 319.383 33.352C320.492 33.352 320.919 32.7406 320.919 31.2441V28.1143H321.955V32.3574Z" fill="#000A28"/>
<path d="M324.728 31.2986C324.737 32.5214 325.355 33.3883 326.374 33.3883C327.328 33.3883 327.637 32.8955 327.828 32.4575H328.874C328.637 33.224 327.992 34.246 326.346 34.246C324.455 34.246 323.683 32.713 323.683 31.1709C323.683 29.3915 324.583 27.968 326.41 27.968C328.346 27.968 328.983 29.5193 328.983 30.7968C328.983 30.9793 328.983 31.1344 328.964 31.2895H324.728V31.2986ZM327.928 30.5686C327.919 29.5831 327.419 28.7893 326.392 28.7893C325.337 28.7893 324.865 29.5193 324.765 30.5686H327.928Z" fill="#000A28"/>
<path d="M251.775 46.8933C251.521 47.9245 250.821 48.8735 249.294 48.8735C247.639 48.8735 246.612 47.6872 246.612 45.771C246.612 44.0737 247.576 42.5955 249.366 42.5955C251.103 42.5955 251.703 43.8273 251.775 44.603H250.748C250.603 43.9916 250.212 43.4623 249.348 43.4623C248.285 43.4623 247.685 44.3748 247.685 45.7345C247.685 47.1032 248.266 48.0157 249.312 48.0157C250.066 48.0157 250.503 47.6142 250.748 46.9025H251.775V46.8933Z" fill="#000A28"/>
<path d="M258.612 45.7253C258.612 47.45 257.621 48.8735 255.784 48.8735C254.057 48.8735 253.021 47.5412 253.021 45.7436C253.021 43.9733 254.039 42.5955 255.857 42.5955C257.521 42.5955 258.612 43.8365 258.612 45.7253ZM254.084 45.7345C254.084 47.0485 254.739 48.0066 255.821 48.0066C256.921 48.0066 257.539 47.0941 257.539 45.7345C257.539 44.384 256.921 43.4532 255.794 43.4532C254.675 43.4623 254.084 44.3657 254.084 45.7345Z" fill="#000A28"/>
<path d="M260.321 44.2471C260.321 43.727 260.321 43.1977 260.312 42.7323H261.321C261.348 42.9057 261.366 43.5353 261.357 43.7178C261.593 43.2068 262.084 42.5955 263.248 42.5955C264.375 42.5955 265.257 43.2798 265.257 44.8767V48.7275H264.221V45.0045C264.221 44.1011 263.866 43.4897 262.948 43.4897C261.811 43.4897 261.357 44.3475 261.357 45.552V48.7275H260.321V44.2471Z" fill="#000A28"/>
<path d="M271.357 47.8697C271.048 48.4993 270.493 48.8735 269.457 48.8735C268.093 48.8735 266.957 47.7967 266.957 45.7983C266.957 43.7817 268.157 42.5955 269.602 42.5955C270.72 42.5955 271.211 43.1065 271.357 43.4988C271.357 43.2798 271.375 42.9787 271.393 42.7415H272.375C272.366 43.362 272.366 43.8456 272.366 44.3931V51.0908H271.357V47.8697ZM268.039 45.7527C268.039 46.9572 268.566 47.9883 269.711 47.9883C271.011 47.9883 271.384 47.1032 271.384 45.698C271.384 44.2927 271.048 43.4715 269.748 43.4715C268.621 43.4806 268.039 44.4296 268.039 45.7527Z" fill="#000A28"/>
<path d="M279.329 46.9846C279.329 47.5686 279.338 48.3807 279.338 48.7275H278.329C278.302 48.5723 278.293 48.2073 278.293 47.8332C278.002 48.4993 277.42 48.8735 276.475 48.8735C275.466 48.8735 274.484 48.3716 274.484 46.6835V42.7415H275.511V46.4645C275.511 47.2492 275.757 47.9792 276.757 47.9792C277.866 47.9792 278.293 47.3678 278.293 45.8713V42.7415H279.329V46.9846Z" fill="#000A28"/>
<path d="M281.466 40.0496H282.502V41.3453H281.466V40.0496ZM281.466 42.7323H282.502V48.7274H281.466V42.7323Z" fill="#000A28"/>
<path d="M285.075 47.012C285.247 47.669 285.738 48.0522 286.547 48.0522C287.429 48.0522 287.774 47.669 287.774 47.1306C287.774 46.574 287.502 46.3093 286.347 46.0356C284.629 45.6158 284.265 45.0957 284.265 44.2836C284.265 43.435 284.893 42.5955 286.438 42.5955C287.993 42.5955 288.629 43.4897 288.702 44.3292H287.693C287.611 43.946 287.311 43.3985 286.384 43.3985C285.538 43.3985 285.293 43.8 285.293 44.1923C285.293 44.6395 285.538 44.8585 286.638 45.1231C288.465 45.552 288.829 46.1633 288.829 47.0485C288.829 48.0978 287.993 48.8643 286.493 48.8643C284.938 48.8643 284.175 48.0796 284.02 47.012H285.075Z" fill="#000A28"/>
<path d="M289.711 42.7323H290.747V40.9712H291.783V42.7414H293.111V43.5901H291.783V47.1032C291.783 47.6872 291.929 47.9883 292.465 47.9883C292.611 47.9883 292.829 47.9792 292.992 47.9427V48.7183C292.738 48.8096 292.383 48.8278 292.093 48.8278C291.156 48.8278 290.738 48.3442 290.738 47.3496V43.5992H289.702V42.7323H289.711Z" fill="#000A28"/>
<path d="M299.083 47.4227C299.083 47.9702 299.129 48.5542 299.165 48.7276H298.174C298.129 48.5907 298.092 48.3078 298.074 47.9428C297.865 48.3443 297.383 48.8736 296.22 48.8736C294.802 48.8736 294.193 47.9519 294.193 47.0394C294.193 45.6981 295.247 45.0867 297.038 45.0867C297.456 45.0867 297.838 45.0867 298.065 45.0867V44.5757C298.065 44.0464 297.892 43.3986 296.774 43.3986C295.765 43.3986 295.602 43.8913 295.492 44.3658H294.483C294.565 43.5354 295.074 42.5864 296.802 42.5864C298.274 42.5864 299.083 43.1887 299.083 44.5483V47.4227ZM298.065 45.8076C297.874 45.8076 297.42 45.8076 297.092 45.8076C295.892 45.8076 295.247 46.1361 295.247 46.9847C295.247 47.6052 295.674 48.0614 296.42 48.0614C297.865 48.0614 298.065 47.0851 298.065 45.9992V45.8076Z" fill="#000A28"/>
<path d="M304.583 40.0496H305.62V43.5901C305.892 43.0791 306.447 42.5954 307.538 42.5954C309.047 42.5954 310.001 43.8364 310.001 45.6158C310.001 47.4408 309.083 48.8734 307.383 48.8734C306.42 48.8734 305.92 48.5176 305.61 47.9427C305.61 48.2529 305.592 48.5723 305.574 48.7366H304.574C304.583 48.0704 304.583 47.3952 304.583 46.7199V40.0496ZM308.938 45.6341C308.938 44.3383 308.347 43.4714 307.301 43.4714C306.02 43.4714 305.574 44.3292 305.574 45.7527C305.574 47.0028 305.974 47.9974 307.256 47.9974C308.31 47.9974 308.938 47.0941 308.938 45.6341Z" fill="#000A28"/>
<path d="M312.401 45.9171C312.41 47.1398 313.028 48.0067 314.047 48.0067C315.001 48.0067 315.31 47.5139 315.501 47.0759H316.546C316.31 47.8424 315.665 48.8644 314.019 48.8644C312.128 48.8644 311.356 47.3314 311.356 45.7893C311.356 44.0099 312.256 42.5864 314.083 42.5864C316.019 42.5864 316.656 44.1377 316.656 45.4152C316.656 45.5977 316.656 45.7528 316.637 45.9079H312.401V45.9171ZM315.61 45.1871C315.601 44.2016 315.101 43.4077 314.074 43.4077C313.019 43.4077 312.547 44.1377 312.447 45.1871H315.61Z" fill="#000A28"/>
<path d="M318.356 44.2836C318.356 43.7635 318.356 43.2251 318.346 42.7415H319.346C319.365 42.924 319.392 43.362 319.383 43.6631C319.655 43.1247 320.183 42.5955 321.128 42.5955C321.983 42.5955 322.564 43.0243 322.792 43.6722C323.11 43.1065 323.683 42.5955 324.71 42.5955C325.683 42.5955 326.61 43.1703 326.61 44.7946V48.7366H325.592V44.9223C325.592 44.2288 325.337 43.4897 324.401 43.4897C323.419 43.4897 323.001 44.2288 323.001 45.2873V48.7275H321.983V44.9497C321.983 44.1832 321.765 43.4897 320.819 43.4897C319.855 43.4897 319.392 44.2653 319.392 45.4151V48.7366H318.365V44.2836H318.356Z" fill="#000A28"/>
<path d="M331.583 45.2327V46.1725H328.464V45.2327H331.583Z" fill="#000A28"/>
<path d="M334.237 45.9171C334.246 47.1398 334.864 48.0067 335.883 48.0067C336.837 48.0067 337.146 47.5139 337.337 47.0759H338.382C338.146 47.8424 337.501 48.8644 335.855 48.8644C333.964 48.8644 333.192 47.3314 333.192 45.7893C333.192 44.0099 334.092 42.5864 335.919 42.5864C337.855 42.5864 338.492 44.1377 338.492 45.4152C338.492 45.5977 338.492 45.7528 338.473 45.9079H334.237V45.9171ZM337.437 45.1871C337.428 44.2016 336.928 43.4077 335.901 43.4077C334.846 43.4077 334.373 44.1377 334.273 45.1871H337.437Z" fill="#000A28"/>
<path d="M340.773 47.012C340.946 47.669 341.437 48.0522 342.246 48.0522C343.128 48.0522 343.473 47.669 343.473 47.1306C343.473 46.574 343.2 46.3093 342.046 46.0356C340.328 45.6158 339.964 45.0957 339.964 44.2836C339.964 43.435 340.591 42.5955 342.137 42.5955C343.691 42.5955 344.328 43.4897 344.4 44.3292H343.391C343.309 43.946 343.009 43.3985 342.082 43.3985C341.237 43.3985 340.991 43.8 340.991 44.1923C340.991 44.6395 341.237 44.8585 342.337 45.1231C344.164 45.552 344.528 46.1633 344.528 47.0485C344.528 48.0978 343.691 48.8643 342.191 48.8643C340.637 48.8643 339.873 48.0796 339.719 47.012H340.773Z" fill="#000A28"/>
<path d="M345.409 42.7323H346.446V40.9712H347.482V42.7414H348.809V43.5901H347.482V47.1032C347.482 47.6872 347.627 47.9883 348.164 47.9883C348.309 47.9883 348.527 47.9792 348.691 47.9427V48.7183C348.437 48.8096 348.082 48.8278 347.791 48.8278C346.855 48.8278 346.437 48.3442 346.437 47.3496V43.5992H345.4V42.7323H345.409Z" fill="#000A28"/>
<path d="M354.782 47.4227C354.782 47.9702 354.827 48.5542 354.864 48.7276H353.873C353.827 48.5907 353.791 48.3078 353.773 47.9428C353.564 48.3443 353.082 48.8736 351.918 48.8736C350.5 48.8736 349.891 47.9519 349.891 47.0394C349.891 45.6981 350.946 45.0867 352.736 45.0867C353.155 45.0867 353.536 45.0867 353.764 45.0867V44.5757C353.764 44.0464 353.591 43.3986 352.473 43.3986C351.464 43.3986 351.3 43.8913 351.191 44.3658H350.182C350.264 43.5354 350.773 42.5864 352.5 42.5864C353.973 42.5864 354.782 43.1887 354.782 44.5483V47.4227ZM353.764 45.8076C353.573 45.8076 353.118 45.8076 352.791 45.8076C351.591 45.8076 350.946 46.1361 350.946 46.9847C350.946 47.6052 351.373 48.0614 352.118 48.0614C353.564 48.0614 353.764 47.0851 353.764 45.9992V45.8076Z" fill="#000A28"/>
<path d="M356.927 44.3658C356.927 43.5263 356.918 43.0518 356.918 42.7324H357.936C357.955 42.8967 357.973 43.3712 357.973 43.9552C358.291 43.1431 359 42.6229 360 42.5864V43.6176C358.764 43.6541 357.973 44.2928 357.973 45.8076V48.7184H356.936V44.3658H356.927Z" fill="#000A28"/>
<path d="M0 17.9124V55.0876C7.29982 52.0581 12.436 44.8767 12.436 36.5C12.436 28.1232 7.29982 20.9419 0 17.9124Z" fill="#7DAAFA"/>
<path d="M12.4541 9.15234V63.8385C23.1993 59.3855 30.7536 48.8187 30.7536 36.5C30.7536 24.1812 23.1993 13.6145 12.4541 9.15234Z" fill="#3C82FA"/>
<path d="M30.7174 0V73C45.0625 67.0505 55.1441 52.9524 55.1441 36.5C55.1441 20.0476 45.0534 5.9495 30.7174 0Z" fill="#0F46C8"/>
<path d="M88.1433 23.5518H67.6711V49.9139H72.4892V42.4131H88.1433C94.2341 42.4131 98.3431 38.8909 98.3431 33.0053C98.334 27.074 94.2341 23.5518 88.1433 23.5518ZM86.2252 38.1426H72.4892V27.8314H86.2252C88.9342 27.8314 93.1523 27.8314 93.1523 33.0053C93.1432 38.1426 88.9342 38.1426 86.2252 38.1426Z" fill="#000A28"/>
<path d="M151.214 46.3916C143.915 46.3916 139.442 43.5446 139.442 36.7191C139.442 29.8936 143.878 27.0831 151.214 27.0831C157.651 27.0831 161.296 29.337 162.014 33.0782H167.205C166.414 27.3386 161.26 22.8035 151.214 22.8035C139.778 22.8035 134.242 28.2055 134.242 36.7191C134.242 45.2327 139.769 50.6712 151.214 50.6712C161.26 50.6712 166.414 46.0996 167.241 40.3235H162.014C161.296 44.0647 157.605 46.3916 151.214 46.3916Z" fill="#000A28"/>
<path d="M216.685 22.8035C205.131 22.8035 199.64 28.242 199.64 36.7191C199.64 45.1962 205.131 50.6712 216.685 50.6712C228.194 50.6712 233.694 45.1597 233.694 36.7191C233.694 28.2785 228.203 22.8035 216.685 22.8035ZM216.685 46.3916C209.24 46.3916 204.831 43.5446 204.831 36.7191C204.831 29.8936 209.195 27.0831 216.685 27.0831C224.176 27.0831 228.54 29.9301 228.54 36.7191C228.54 43.5081 224.14 46.3916 216.685 46.3916Z" fill="#000A28"/>
<path d="M111.915 23.5518L96.5977 49.9139H102.088L105.379 44.2108L107.743 40.1045L108.488 41.5371C109.352 43.1796 111.052 44.2108 112.915 44.2108H124.588L127.86 49.9139H133.315L118.006 23.5518H111.915ZM107.752 40.0863L114.961 27.5211L122.188 40.0863H107.752Z" fill="#000A28"/>
<path d="M169.687 27.8132H181.205V49.8957H185.986V27.8589L185.932 25.1122L187.059 26.2802C188.004 27.2657 189.304 27.8224 190.668 27.8224H198.05V23.5427H169.696V27.8132H169.687Z" fill="#000A28"/>
</svg>
